<?xml version="1.0" encoding="UTF-8"?>
<svg width="300mm" height="300mm" version="1.1" viewBox="0 0 300 300" xmlns="http://www.w3.org/2000/svg" xmlns:cc="http://creativecommons.org/ns#" xmlns:dc="http://purl.org/dc/elements/1.1/" xmlns:rdf="http://www.w3.org/1999/02/22-rdf-syntax-ns#">
 <metadata>
  <rdf:RDF>
   <cc:Work rdf:about="">
    <dc:format>image/svg+xml</dc:format>
    <dc:type rdf:resource="http://purl.org/dc/dcmitype/StillImage"/>
    <dc:title/>
   </cc:Work>
  </rdf:RDF>
 </metadata>
 <g>
  <rect x="1.5895e-7" width="300" height="300" fill="#a4e672" style="paint-order:markers stroke fill"/>
  <path d="m227.65 136.14c-25.124 0-41.203 16.079-41.203 37.183 0 22.913 13.466 33.767 33.766 42.409l7.0347 3.0148c12.863 5.6277 20.501 9.0444 20.501 18.692 0 8.0396-7.437 13.868-19.094 13.868-13.868 0-21.707-7.2357-27.736-17.084l-22.913 13.265c8.2406 16.28 25.123 28.741 51.252 28.741 26.732 0 46.63-13.868 46.63-39.193 0-23.516-13.466-33.967-37.384-44.217l-7.0347-3.0153c-12.059-5.2257-17.285-8.6421-17.285-17.084 0-6.8337 5.2258-12.06 13.466-12.06 8.0396 0 13.265 3.4172 18.089 12.06l21.908-14.069c-9.2456-16.28-22.109-22.511-39.997-22.511zm-162.4 1.6077v136.67h55.272c28.541 0 45.826-17.888 45.826-42.208 0-17.084-9.0442-29.546-27.736-33.967 11.858-3.8188 19.295-12.461 19.295-25.124 0-19.295-14.27-35.375-39.796-35.375zm28.138 24.722h23.114c8.6426 0 13.667 5.0247 13.667 12.863s-6.0295 12.863-15.074 12.863h-21.707zm0 49.645h24.32c12.863 0 20.3 7.6374 20.3 18.692 0 11.255-7.236 18.893-18.692 18.893h-25.928z" fill="#2e2e2c" stroke-width="1.0468"/>
 </g>
</svg>
